<?xml version="1.0" encoding="UTF-8"?><svg id="Layer_2" xmlns="http://www.w3.org/2000/svg" viewBox="0 0 495.1 129.13"><defs><style>.cls-1{fill-rule:evenodd;}.cls-1,.cls-2{fill:#213b7c;}.cls-3{fill:#109a39;}</style></defs><g id="Layer_2-2"><g><g><path class="cls-2" d="M140.08,86.72l-5.24,14.41h1.38l1.54-4.34h6.05l1.54,4.34h1.38l-5.24-14.41h-1.41Zm-1.9,8.89l2.55-7.18h.1l2.55,7.18h-5.21Z"/><rect class="cls-2" x="149.2" y="86.72" width="1.32" height="14.41"/><path class="cls-2" d="M163.31,86.05c-.49,0-.95,.1-1.39,.31-.44,.21-.79,.51-1.06,.91-.27,.4-.4,.89-.4,1.47v1.58h-1.66v1.09h1.66v9.72h1.25v-9.72h2.4v-1.09h-2.39v-1.32c0-.57,.15-1,.44-1.31,.3-.31,.71-.46,1.26-.46,.21,0,.38,.02,.51,.06,.14,.04,.25,.07,.34,.1l.37-1.1c-.13-.05-.3-.1-.52-.16-.22-.05-.49-.08-.82-.08Z"/><path class="cls-2" d="M173.28,90.88c-.71-.47-1.54-.71-2.47-.71s-1.76,.24-2.47,.71c-.72,.47-1.28,1.13-1.68,1.97-.4,.84-.61,1.82-.61,2.92s.2,2.07,.61,2.9c.4,.84,.96,1.49,1.68,1.97,.71,.47,1.54,.71,2.47,.71s1.76-.24,2.47-.71,1.27-1.13,1.68-1.97c.4-.84,.6-1.81,.6-2.9s-.2-2.08-.61-2.92-.96-1.5-1.68-1.97Zm.62,7.11c-.27,.67-.67,1.21-1.19,1.61s-1.16,.61-1.91,.61-1.39-.2-1.91-.61-.92-.94-1.19-1.61c-.27-.67-.41-1.41-.41-2.22s.13-1.55,.41-2.22c.27-.68,.67-1.22,1.19-1.63,.52-.41,1.16-.61,1.9-.61s1.39,.2,1.91,.61,.92,.95,1.19,1.63c.27,.67,.4,1.42,.4,2.22s-.13,1.55-.4,2.22Z"/><path class="cls-2" d="M182.59,90.16c-.68,0-1.29,.17-1.83,.5-.54,.34-.91,.78-1.13,1.32h-.09v-1.66h-1.22v10.81h1.25v-6.98c0-.54,.13-1.01,.38-1.43,.25-.42,.6-.74,1.04-.98,.44-.24,.94-.36,1.5-.36,.16,0,.32,0,.46,.03,.14,.02,.24,.03,.3,.04v-1.27c-.08,0-.19,0-.32-.01-.13,0-.24,0-.34,0Z"/><path class="cls-2" d="M197.37,90.89c-.38-.26-.8-.45-1.25-.56-.45-.11-.88-.16-1.29-.16-.55,0-1.09,.08-1.63,.24-.53,.16-1.02,.41-1.45,.77-.43,.35-.77,.83-1.01,1.42l1.19,.43c.2-.46,.54-.87,1.03-1.21,.49-.34,1.12-.51,1.9-.51,.82,0,1.45,.21,1.89,.64s.66,1,.66,1.74v.25c0,.27-.11,.47-.33,.59s-.54,.21-.96,.27-.93,.12-1.54,.2c-.61,.08-1.17,.18-1.67,.32-.51,.14-.95,.32-1.32,.56-.37,.24-.66,.54-.86,.9-.2,.37-.3,.82-.3,1.35,0,.69,.16,1.29,.48,1.77s.75,.86,1.29,1.11c.54,.26,1.13,.38,1.79,.38,.6,0,1.12-.1,1.57-.29,.45-.19,.82-.44,1.11-.74,.29-.3,.52-.61,.67-.93h.08v1.71h1.25v-7.34c0-.72-.12-1.32-.36-1.79-.24-.47-.55-.84-.94-1.11Zm.04,6.09c0,.59-.13,1.13-.4,1.62-.27,.49-.64,.88-1.13,1.18-.49,.29-1.07,.44-1.73,.44-.71,0-1.3-.18-1.77-.54-.47-.36-.7-.87-.7-1.52,0-.44,.11-.79,.34-1.07,.23-.28,.56-.5,.99-.66,.43-.16,.95-.28,1.56-.35,.22-.03,.48-.06,.76-.1,.28-.04,.56-.08,.85-.14,.28-.05,.54-.12,.75-.19,.22-.07,.38-.15,.47-.24v1.56Z"/><path class="cls-2" d="M210.92,88.47c.75-.47,1.58-.71,2.49-.71,.57,0,1.1,.09,1.58,.26,.49,.17,.92,.42,1.31,.73s.71,.68,.96,1.1c.25,.42,.43,.88,.53,1.37h1.32c-.12-.67-.34-1.28-.66-1.85-.32-.57-.73-1.07-1.22-1.5-.5-.43-1.06-.76-1.71-1-.64-.24-1.35-.36-2.12-.36-1.21,0-2.29,.3-3.22,.91-.94,.61-1.67,1.46-2.21,2.57-.53,1.11-.8,2.41-.8,3.92s.27,2.81,.8,3.92c.53,1.11,1.27,1.96,2.21,2.57,.94,.61,2.01,.91,3.22,.91,.77,0,1.48-.12,2.12-.36s1.21-.57,1.71-1,.9-.93,1.22-1.5c.32-.57,.54-1.19,.66-1.85h-1.32c-.1,.49-.28,.95-.53,1.37-.26,.42-.58,.79-.96,1.1-.38,.31-.82,.55-1.31,.73-.49,.17-1.02,.26-1.58,.26-.91,0-1.74-.24-2.49-.71-.75-.47-1.35-1.16-1.79-2.08s-.67-2.04-.67-3.38,.22-2.45,.67-3.37c.45-.92,1.05-1.61,1.79-2.09Z"/><rect class="cls-2" x="221.95" y="86.72" width="1.25" height="14.41"/><rect class="cls-2" x="226.52" y="90.32" width="1.26" height="10.81"/><path class="cls-2" d="M227.16,86.66c-.25,0-.47,.09-.66,.26-.19,.18-.28,.39-.28,.64s.09,.46,.27,.64c.18,.18,.4,.26,.66,.26s.47-.09,.66-.26c.18-.18,.28-.39,.28-.64s-.09-.46-.27-.64c-.18-.18-.4-.26-.66-.26Z"/><path class="cls-2" d="M241.55,90.18c-.79,0-1.46,.18-2.01,.53-.55,.35-.95,.83-1.19,1.43h-.09c-.24-.61-.6-1.09-1.08-1.44-.48-.35-1.09-.52-1.84-.52s-1.32,.16-1.82,.48c-.5,.32-.87,.76-1.08,1.32h-.11v-1.66h-1.22v10.81h1.25v-6.92c0-.56,.11-1.06,.34-1.5,.23-.43,.54-.77,.94-1.02s.84-.37,1.34-.37c.74,0,1.32,.23,1.72,.68s.61,1.04,.61,1.77v7.35h1.28v-7.12c0-.78,.22-1.42,.67-1.93,.45-.51,1.08-.76,1.91-.76,.71,0,1.29,.21,1.72,.64,.44,.43,.66,1.07,.66,1.92v7.24h1.25v-7.24c0-1.21-.29-2.13-.87-2.76-.58-.63-1.38-.95-2.38-.95Z"/><path class="cls-2" d="M254.51,90.89c-.38-.26-.8-.45-1.25-.56-.45-.11-.88-.16-1.29-.16-.55,0-1.09,.08-1.63,.24-.53,.16-1.02,.41-1.45,.77-.43,.35-.77,.83-1.01,1.42l1.19,.43c.2-.46,.54-.87,1.03-1.21,.49-.34,1.12-.51,1.9-.51,.82,0,1.45,.21,1.89,.64s.66,1,.66,1.74v.25c0,.27-.11,.47-.33,.59s-.54,.21-.96,.27-.93,.12-1.54,.2c-.61,.08-1.17,.18-1.67,.32-.51,.14-.95,.32-1.32,.56-.37,.24-.66,.54-.86,.9-.2,.37-.3,.82-.3,1.35,0,.69,.16,1.29,.48,1.77s.75,.86,1.29,1.11c.54,.26,1.13,.38,1.79,.38,.6,0,1.12-.1,1.57-.29,.45-.19,.82-.44,1.11-.74,.29-.3,.52-.61,.67-.93h.08v1.71h1.25v-7.34c0-.72-.12-1.32-.36-1.79-.24-.47-.55-.84-.94-1.11Zm.04,6.09c0,.59-.13,1.13-.4,1.62-.27,.49-.64,.88-1.13,1.18-.49,.29-1.07,.44-1.73,.44-.71,0-1.3-.18-1.77-.54-.47-.36-.7-.87-.7-1.52,0-.44,.11-.79,.34-1.07,.23-.28,.56-.5,.99-.66,.43-.16,.95-.28,1.56-.35,.22-.03,.48-.06,.76-.1,.28-.04,.56-.08,.85-.14,.28-.05,.54-.12,.75-.19,.22-.07,.38-.15,.47-.24v1.56Z"/><path class="cls-2" d="M263.16,100.03c-.12,.02-.26,.03-.42,.03-.28,0-.55-.05-.79-.16s-.45-.29-.61-.54c-.15-.26-.23-.61-.23-1.06v-6.9h2.29v-1.09h-2.29v-2.59h-1.26v2.59h-1.61v1.09h1.61v7.19c0,.59,.14,1.09,.41,1.48,.27,.4,.62,.7,1.05,.9,.42,.2,.87,.3,1.33,.3,.26,0,.48-.02,.66-.06,.18-.04,.33-.08,.45-.13l-.27-1.13c-.09,.02-.19,.05-.31,.07Z"/><path class="cls-2" d="M273.58,91.47c-.43-.44-.92-.76-1.47-.98-.54-.21-1.11-.32-1.7-.32-.93,0-1.76,.24-2.47,.72-.71,.48-1.27,1.14-1.67,1.99-.4,.85-.6,1.81-.6,2.9s.2,2.06,.6,2.9c.4,.84,.97,1.49,1.71,1.96,.74,.47,1.61,.71,2.62,.71,.72,0,1.36-.12,1.92-.35,.56-.23,1.02-.54,1.39-.93s.64-.8,.81-1.26l-1.19-.39c-.14,.32-.34,.62-.6,.89-.27,.27-.59,.48-.98,.64-.39,.16-.84,.24-1.35,.24-.75,0-1.4-.18-1.95-.53-.55-.35-.97-.85-1.27-1.49-.28-.6-.42-1.3-.43-2.09h8.04v-.62c0-.91-.13-1.69-.38-2.35-.25-.66-.6-1.22-1.03-1.65Zm-6.61,3.52c.04-.6,.16-1.17,.42-1.68,.29-.6,.7-1.08,1.22-1.45s1.12-.55,1.81-.55c.65,0,1.22,.16,1.71,.49,.5,.32,.88,.76,1.16,1.32,.28,.56,.42,1.18,.42,1.88h-6.74Z"/><rect class="cls-2" x="277.58" y="94.36" width="6" height="1.18"/><path class="cls-2" d="M294.2,94.76c.68-.36,1.2-.86,1.55-1.51s.52-1.38,.52-2.22-.17-1.58-.52-2.23c-.35-.65-.87-1.16-1.56-1.53-.69-.37-1.54-.55-2.56-.55h-4.65v14.41h1.32v-5.83h3.36c.19,0,.37-.01,.55-.03l3.16,5.85h1.52l-3.33-6.1c.23-.07,.45-.16,.65-.27Zm-2.58-.66h-3.32v-6.2h3.3c.76,0,1.39,.13,1.89,.39,.5,.26,.87,.62,1.12,1.09s.37,1.02,.37,1.65-.12,1.17-.37,1.63c-.25,.46-.62,.81-1.12,1.06-.5,.25-1.12,.37-1.88,.37Z"/><path class="cls-2" d="M306.57,91.47c-.43-.44-.92-.76-1.47-.98-.54-.21-1.11-.32-1.7-.32-.93,0-1.76,.24-2.47,.72-.71,.48-1.27,1.14-1.67,1.99-.4,.85-.6,1.81-.6,2.9s.2,2.06,.6,2.9c.4,.84,.97,1.49,1.71,1.96,.74,.47,1.61,.71,2.62,.71,.72,0,1.36-.12,1.92-.35,.56-.23,1.02-.54,1.39-.93s.64-.8,.81-1.26l-1.19-.39c-.14,.32-.34,.62-.6,.89-.27,.27-.59,.48-.98,.64-.39,.16-.84,.24-1.35,.24-.75,0-1.4-.18-1.95-.53-.55-.35-.97-.85-1.27-1.49-.28-.6-.42-1.3-.43-2.09h8.04v-.62c0-.91-.13-1.69-.38-2.35-.25-.66-.6-1.22-1.03-1.65Zm-6.61,3.52c.04-.6,.16-1.17,.42-1.68,.29-.6,.7-1.08,1.22-1.45s1.12-.55,1.81-.55c.65,0,1.22,.16,1.71,.49,.5,.32,.88,.76,1.16,1.32,.28,.56,.42,1.18,.42,1.88h-6.74Z"/><path class="cls-2" d="M315.44,95.36l-1.63-.4c-.67-.17-1.17-.4-1.49-.69-.32-.29-.48-.67-.48-1.13,0-.55,.23-1,.7-1.34,.47-.35,1.07-.52,1.8-.52,.49,0,.9,.08,1.23,.23,.33,.15,.6,.36,.81,.63,.21,.26,.37,.56,.48,.88l1.15-.32c-.26-.78-.69-1.4-1.29-1.85-.59-.45-1.38-.67-2.38-.67-.73,0-1.37,.13-1.94,.39-.57,.26-1.01,.61-1.34,1.07-.32,.45-.49,.98-.49,1.57,0,.72,.22,1.33,.68,1.82,.45,.49,1.14,.84,2.08,1.07l1.77,.42c.59,.14,1.03,.36,1.32,.66s.44,.67,.44,1.1c0,.56-.25,1.03-.75,1.4s-1.16,.56-1.99,.56c-.74,0-1.34-.17-1.79-.49-.45-.33-.76-.81-.91-1.46l-1.2,.3c.19,.9,.63,1.59,1.32,2.07,.68,.48,1.56,.71,2.61,.71,.79,0,1.49-.14,2.09-.41,.6-.27,1.07-.64,1.41-1.12s.51-1.02,.51-1.63c0-.72-.23-1.32-.68-1.8-.45-.48-1.13-.83-2.04-1.05Z"/><path class="cls-2" d="M321.55,86.66c-.25,0-.47,.09-.66,.26-.19,.18-.28,.39-.28,.64s.09,.46,.27,.64c.18,.18,.4,.26,.66,.26s.47-.09,.66-.26c.18-.18,.28-.39,.28-.64s-.09-.46-.27-.64c-.18-.18-.4-.26-.66-.26Z"/><rect class="cls-2" x="320.91" y="90.32" width="1.26" height="10.81"/><rect class="cls-2" x="325.49" y="86.72" width="1.25" height="14.41"/><path class="cls-2" d="M330.71,86.66c-.25,0-.47,.09-.66,.26-.19,.18-.28,.39-.28,.64s.09,.46,.27,.64c.18,.18,.4,.26,.66,.26s.47-.09,.66-.26c.18-.18,.28-.39,.28-.64s-.09-.46-.27-.64c-.18-.18-.4-.26-.66-.26Z"/><rect class="cls-2" x="330.07" y="90.32" width="1.26" height="10.81"/><path class="cls-2" d="M341.99,91.47c-.43-.44-.92-.76-1.47-.98-.54-.21-1.11-.32-1.7-.32-.93,0-1.76,.24-2.47,.72-.71,.48-1.27,1.14-1.67,1.99-.4,.85-.6,1.81-.6,2.9s.2,2.06,.6,2.9c.4,.84,.97,1.49,1.71,1.96,.74,.47,1.61,.71,2.62,.71,.72,0,1.36-.12,1.92-.35,.56-.23,1.02-.54,1.39-.93s.64-.8,.81-1.26l-1.19-.39c-.14,.32-.34,.62-.6,.89-.27,.27-.59,.48-.98,.64-.39,.16-.84,.24-1.35,.24-.75,0-1.4-.18-1.95-.53-.55-.35-.97-.85-1.27-1.49-.28-.6-.42-1.3-.43-2.09h8.04v-.62c0-.91-.13-1.69-.38-2.35-.25-.66-.6-1.22-1.03-1.65Zm-6.61,3.52c.04-.6,.16-1.17,.42-1.68,.29-.6,.7-1.08,1.22-1.45s1.12-.55,1.81-.55c.65,0,1.22,.16,1.71,.49,.5,.32,.88,.76,1.16,1.32,.28,.56,.42,1.18,.42,1.88h-6.74Z"/><path class="cls-2" d="M352.58,90.63c-.55-.3-1.19-.45-1.92-.45-.79,0-1.46,.17-2,.5-.54,.33-.93,.78-1.19,1.33h-.11v-1.7h-1.22v10.81h1.25v-6.76c0-.63,.13-1.17,.38-1.63,.26-.46,.6-.81,1.04-1.05,.44-.24,.95-.37,1.51-.37,.83,0,1.49,.26,1.99,.77,.5,.52,.74,1.22,.74,2.1v6.92h1.25v-7c0-.85-.15-1.57-.46-2.16-.31-.59-.74-1.03-1.29-1.33Z"/><path class="cls-2" d="M361.66,100.03c-.12,.02-.26,.03-.42,.03-.28,0-.55-.05-.79-.16s-.45-.29-.61-.54c-.15-.26-.23-.61-.23-1.06v-6.9h2.29v-1.09h-2.29v-2.59h-1.26v2.59h-1.61v1.09h1.61v7.19c0,.59,.14,1.09,.41,1.48,.27,.4,.62,.7,1.05,.9,.42,.2,.87,.3,1.33,.3,.26,0,.48-.02,.66-.06,.18-.04,.33-.08,.45-.13l-.27-1.13c-.09,.02-.19,.05-.31,.07Z"/><path class="cls-2" d="M374.46,86.72l-5.24,14.41h1.38l1.54-4.34h6.05l1.54,4.34h1.38l-5.24-14.41h-1.41Zm-1.9,8.89l2.55-7.18h.1l2.55,7.18h-5.21Z"/><path class="cls-2" d="M386.97,86.05c-.49,0-.95,.1-1.39,.31-.44,.21-.79,.51-1.06,.91-.27,.4-.4,.89-.4,1.47v1.58h-1.66v1.09h1.66v9.72h1.25v-9.72h2.4v-1.09h-2.39v-1.32c0-.57,.15-1,.44-1.31,.3-.31,.71-.46,1.26-.46,.21,0,.38,.02,.51,.06,.14,.04,.25,.07,.34,.1l.37-1.1c-.13-.05-.3-.1-.52-.16-.22-.05-.49-.08-.82-.08Z"/><path class="cls-2" d="M394.54,90.16c-.68,0-1.29,.17-1.83,.5-.54,.34-.91,.78-1.13,1.32h-.09v-1.66h-1.22v10.81h1.25v-6.98c0-.54,.13-1.01,.38-1.43,.25-.42,.6-.74,1.04-.98,.44-.24,.94-.36,1.5-.36,.16,0,.32,0,.46,.03,.14,.02,.24,.03,.3,.04v-1.27c-.08,0-.19,0-.32-.01-.13,0-.24,0-.34,0Z"/><rect class="cls-2" x="397.35" y="90.32" width="1.26" height="10.81"/><path class="cls-2" d="M397.99,86.66c-.25,0-.47,.09-.66,.26-.19,.18-.28,.39-.28,.64s.09,.46,.27,.64c.18,.18,.4,.26,.66,.26s.47-.09,.66-.26c.18-.18,.28-.39,.28-.64s-.09-.46-.27-.64c-.18-.18-.4-.26-.66-.26Z"/><path class="cls-2" d="M408.47,99.17c-.27,.33-.6,.59-1,.77-.4,.18-.83,.27-1.31,.27-.71,0-1.33-.19-1.85-.57-.53-.38-.94-.91-1.23-1.58-.29-.67-.44-1.45-.44-2.33s.15-1.64,.45-2.31c.3-.66,.71-1.18,1.24-1.55s1.14-.56,1.83-.56c.77,0,1.4,.22,1.9,.65,.5,.43,.82,.96,.95,1.57h1.27c-.1-.67-.34-1.26-.72-1.76-.38-.5-.87-.9-1.45-1.18-.59-.28-1.24-.42-1.96-.42-.94,0-1.77,.24-2.48,.72-.71,.48-1.27,1.14-1.67,1.99-.4,.84-.6,1.81-.6,2.89s.2,2.03,.59,2.87c.39,.84,.95,1.5,1.66,1.98,.71,.48,1.56,.73,2.52,.73,.75,0,1.42-.15,2-.44s1.06-.69,1.43-1.2c.37-.51,.6-1.09,.69-1.74h-1.27c-.09,.46-.28,.86-.54,1.19Z"/><path class="cls-2" d="M420.3,92c-.24-.47-.55-.84-.94-1.11-.38-.26-.8-.45-1.25-.56-.45-.11-.88-.16-1.29-.16-.55,0-1.09,.08-1.63,.24-.53,.16-1.02,.41-1.45,.77-.43,.35-.77,.83-1.01,1.42l1.19,.43c.2-.46,.54-.87,1.03-1.21,.49-.34,1.12-.51,1.9-.51,.82,0,1.45,.21,1.89,.64s.66,1,.66,1.74v.25c0,.27-.11,.47-.33,.59s-.54,.21-.96,.27-.93,.12-1.54,.2c-.61,.08-1.17,.18-1.67,.32-.51,.14-.95,.32-1.32,.56-.37,.24-.66,.54-.86,.9-.2,.37-.3,.82-.3,1.35,0,.69,.16,1.29,.48,1.77s.75,.86,1.29,1.11c.54,.26,1.13,.38,1.79,.38,.6,0,1.12-.1,1.57-.29,.45-.19,.82-.44,1.11-.74,.29-.3,.52-.61,.67-.93h.08v1.71h1.25v-7.34c0-.72-.12-1.32-.36-1.79Zm-.89,4.99c0,.59-.13,1.13-.4,1.62-.27,.49-.64,.88-1.13,1.18-.49,.29-1.07,.44-1.73,.44-.71,0-1.3-.18-1.77-.54-.47-.36-.7-.87-.7-1.52,0-.44,.11-.79,.34-1.07,.23-.28,.56-.5,.99-.66,.43-.16,.95-.28,1.56-.35,.22-.03,.48-.06,.76-.1,.28-.04,.56-.08,.85-.14,.28-.05,.54-.12,.75-.19,.22-.07,.38-.15,.47-.24v1.56Z"/></g><path class="cls-1" d="M269.56,63.05c.81,2.86-1.78,6.95-2.93,8.52-3.56,4.86-11.63,8.48-20.39,6.27-3.4-.85-6.14-2.35-8.52-4.23-5.87-4.63-9.92-15.7-6.82-26.05,1.2-4.01,3.13-6.86,5.45-9.68,2.15-2.61,5.98-4.43,9.75-5.39l4.16-.55c8.64-.14,13.98,3.02,17.18,8.32,.48,.8,2.93,5.65,1.84,6.82-.43,.61-7.97,.76-8.8,.2-.6-.4-.65-1.4-.95-2.11-.47-1.1-1.29-2.3-2.18-3-5.43-4.23-12.77-1.14-15.41,3.34-4.48,7.59-2.03,19.62,4.09,23.32,2.73,1.65,7.63,1.88,10.5,.14,2.81-1.7,2.55-3.51,4.16-6.14,1.55-.49,7.72-.6,8.86,.2Zm-81.96-17.93c-.31-.52-.34-1.6-.2-2.39,.6-3.51,2.74-1.78,5.25-3,.4-1.09,.6-6.18-.27-6.75-.74-.48-2.6-.3-3.75-.27-1.4,.55-3.18,.37-4.5,.89-3.15,1.24-5.07,3.55-5.8,7.23-.09,1.39-.18,2.77-.27,4.16-.78,.45-2.81,.3-3.68,.55-.55,.81-.93,4.44-.27,5.59,.63,1.24,3.73,.01,4.09,1.36v18.14c0,2.15-.39,5.39,.55,6.68,1.91,.49,7.05,.65,8.39-.34,.4-1.64,.2-4.1,.2-6.07v-12.14c0-1.94-.49-5.51,.34-6.82,1.36-.27,3.52,.01,4.77-.34,.74-1.02,.72-4.6,.2-5.93-1.13-.68-3.55-.2-5.05-.55Zm-13.98,29.18c.34,.96,.88,2.09,.27,3-1.7,.42-8.81,.57-9.48-.55-.87-1.47-1.89-7.7-2.93-8.32-.61-.5-2.74-.2-3.75-.2h-7.3c-1.22,0-2.74-.11-3.75,.14-1.08,1.61-2.16,8.12-3.27,8.86-.98,.66-3.77,.27-5.25,.27-1.56,0-3.13,.18-3.89-.61-.05-1.6,.69-2.82,1.16-4.02,.75-2.16,1.5-4.32,2.25-6.48,2.66-7.65,5.32-15.32,7.98-22.98,1.16-3.32,2.32-6.64,3.48-9.95,.26-.37,.72-.4,1.16-.61,1.86,.01,7.43-.47,8.52,.27,.96,.65,2.78,7.38,3.41,9,2.98,8.39,5.95,16.78,8.93,25.16,.82,2.34,1.64,4.68,2.45,7.02Zm-15.55-17.8c-.91-2.86-1.82-5.73-2.73-8.59-.34-1.1-.43-3.19-1.23-3.89h-.2c-1.18,3.91-2.36,7.82-3.55,11.73-.27,.81-1.48,3.68-1.23,4.43,.11,.23,.11,.23,.34,.34,2.39,.02,4.77,.05,7.16,.07,.82,0,1.98,.18,2.32-.34,.26-.61-.66-3.05-.89-3.75Zm60.55-23.66c-.39,.19-.8,.2-1.02,.55-.57,.89-.24,6.36,.07,7.3,1.2,.8,6.81,.69,8.39,.2,.88-1.3,.84-6.63-.07-7.84-1.99-.5-5.02-.22-7.36-.2Zm63.55,11.45c0-2.77,.61-9.65-.55-11.25-1.99-.5-5.02-.22-7.36-.2-.39,.19-.8,.2-1.02,.55-.52,.81-.2,7.82-.2,9.48v24.89c0,2.54-.52,8.08,.55,9.55,1.91,.49,7.05,.65,8.39-.34,.7-2.8,.2-7.53,.2-10.77v-21.89Zm5.93-11.45c-.39,.19-.8,.2-1.02,.55-.57,.89-.24,6.36,.07,7.3,1.2,.8,6.81,.69,8.39,.2,.88-1.3,.84-6.63-.07-7.84-1.99-.5-5.02-.22-7.36-.2Zm193.32,41.46c.34,.96,.88,2.09,.27,3-1.7,.42-8.81,.57-9.48-.55-.87-1.47-1.89-7.7-2.93-8.32-.61-.5-2.74-.2-3.75-.2h-7.3c-1.22,0-2.74-.11-3.75,.14-1.08,1.61-2.16,8.12-3.27,8.86-.98,.66-3.77,.27-5.25,.27-1.56,0-3.13,.18-3.89-.61-.05-1.6,.69-2.82,1.16-4.02l2.25-6.48c2.66-7.65,5.32-15.32,7.98-22.98,1.16-3.32,2.32-6.64,3.48-9.95,.26-.37,.72-.4,1.16-.61,1.86,.01,7.43-.47,8.52,.27,.96,.65,2.78,7.38,3.41,9,2.98,8.39,5.95,16.78,8.93,25.16l2.45,7.02Zm-15.55-17.8c-.91-2.86-1.82-5.73-2.73-8.59-.34-1.1-.43-3.19-1.23-3.89h-.2c-1.18,3.91-2.36,7.82-3.55,11.73-.27,.81-1.48,3.68-1.23,4.43,.11,.23,.11,.23,.34,.34,2.39,.02,4.77,.05,7.16,.07,.82,0,1.98,.18,2.32-.34,.26-.61-.66-3.05-.89-3.75Zm29.05,9.68v-21.89c0-2.77,.61-9.65-.55-11.25-2.15-.54-5.4-.22-7.91-.2-.39,.19-.8,.2-1.02,.55-.52,.81-.2,7.82-.2,9.48v24.89c0,2.54-.52,8.08,.55,9.55,1.78,.46,7.77,.52,8.93-.34,.7-2.8,.2-7.53,.2-10.77Zm-95.28,4.98c-.66-1.3-3.85-.18-4.84-1.5-1.04-1.39-.55-10.68-.55-13.5,0-1.18-.32-3.44,.2-4.23,.63-.86,3.53-.03,4.5-.55,1.26-.59,.81-5.06,.14-5.93-1.16-.3-3.07-.16-4.43-.27-1.38-1.99,.49-7.52-.95-9.55-1.88-.47-4.73-.22-6.95-.2-.32,.09-.64,.18-.95,.27-.88,1.32-.48,4.59-.48,6.68,0,.91,.19,2.26-.34,2.66-.57,.47-2.88,.26-3.55,.48-.73,1.1-.64,4.2-.2,5.59,.87,.59,2.57,.34,3.82,.61,.72,1.28,.27,4.48,.27,6.27,0,5.54-.91,13.43,1.57,16.64,1.66,2.15,5.61,3.43,9.75,2.8,1.09-.16,2.27,.21,2.86-.41,.53-.55,.34-2.16,.34-3.2,0-.88,.12-2.07-.2-2.66Zm-58.43-25.84c-1.5-.63-3.83-1.27-6.07-.89-1.15,.2-2.24,.47-3.2,.89-1.97,.86-3.27,2.43-4.7,3.82h-.2c-.72-.43-1.07-1.26-1.64-1.84-1.75-1.78-4.2-2.98-7.77-2.93l-1.7,.2c-1.06,.24-2.21,.59-3.07,1.09-1.13,.66-2.02,2.02-3.2,2.45h-.07c-.32-.53-.34-1.86-.55-2.45-1.25-.75-7.26-.65-8.32,.14-.53,2.14-.2,5.35-.2,7.84v15.48c0,2.45-.55,6.67,.55,8.18,1.91,.49,7.05,.65,8.39-.34,1.76-7.13-3.64-26.55,6.41-24.55,1.49,.3,2.55,1.13,3.07,2.39,.59,1.42,.41,3.69,.41,5.66v10.91c0,2-.31,4.76,.55,5.93,1.91,.49,7.05,.65,8.39-.34,1.75-7.09-3.63-26.53,6.34-24.55,1.34,.27,2.39,.98,2.93,2.05,.75,1.48,.55,4.01,.55,6.2v10.7c0,2-.31,4.76,.55,5.93,1.91,.49,7.05,.65,8.39-.34,.72-2.88,.2-8.46,.2-11.86,0-9.49,.83-16.9-6-19.77Zm90.62,10.09c.65,2.07,1.69,5.47,1.02,8.18-1.07,.77-3.33,.55-5.18,.55h-11.93c-1.57,0-4.18-.33-5.18,.34,0,4.66,5.57,8.34,10.43,6.07,1.41-.65,2.15-2.89,3.41-3.2,1.52-.37,7.41-.24,7.84,.61,.51,1.91-2.07,5.07-3,6-5.29,5.31-15.53,5.9-21.89,1.09-4.1-3.09-7.52-10.27-5.66-17.86,.85-3.48,2.36-5.9,4.3-8.25,1.64-1.98,4.56-3.45,7.43-4.16,1.02-.14,2.05-.27,3.07-.41,8.72-.11,13.28,4.48,15.34,11.05Zm-8.45,1.7c-.03-3.4-2.9-5.42-6.34-5.52-.73,.11-1.45,.23-2.18,.34-2.08,.66-3.9,2.66-4.16,5.11,.1,.18,.11,.23,.27,.34,.65,.41,2.28,.2,3.27,.2,2.81,0,6.32,.41,8.86-.14l.27-.34Zm-44.32,17.18c.16,.93,.76,1.72,.61,2.66-.58,.74-7.36,.87-8.25,.2-.65-.48-.55-1.66-1.23-2.11-.52,.43-1.05,.86-1.57,1.3-1.16,.85-2.7,1.38-4.36,1.7-8.77,1.75-17.08-4.73-13.64-13.5,2.42-6.16,9.11-5.8,16.02-7.43,1.82-.43,4.35-1.22,3.27-3.82-1.15-2.77-7.39-2.66-9.27-.61-.65,.7-.7,2.41-1.64,2.8-1.18,.49-5.79,.22-6.95-.07-.97-1.35,.01-3.6,.68-4.77,1.65-2.86,3.89-4.55,7.36-5.59,1.41-.2,2.82-.41,4.23-.61,16.02-.17,14.66,8.26,14.66,23.52,.02,2.11,.05,4.23,.07,6.34Zm-8.93-12l-.41-.07c-2.76,1.26-8.32,1.33-10.02,3.48-.97,1.23-.98,3.69,.07,4.84,.98,1.08,3.77,1.36,5.66,.89,3.12-.77,4.91-2.52,4.91-6.48,0-.91,.08-2.04-.2-2.66Zm-158.39-17.39c-1.39,.56-2.65,.41-3.75,1.09-1.16,.72-1.8,2.06-2.93,2.73-.5-.44-.39-2.42-.61-3.07-1.25-.75-7.26-.65-8.32,.14-.53,2.14-.2,5.35-.2,7.84v15.48c0,2.45-.55,6.67,.55,8.18,1.91,.49,7.05,.65,8.39-.34,.33-1.33,.2-3.33,.2-4.98,0-5.86-.74-13.11,1.84-16.43,1.93-2.47,3.97-1.67,7.23-2.59,.52-.76,.89-6.13,.27-7.23-.36-.78-1.48-.87-2.66-.82Zm14.25,.55c-1.99-.5-5.02-.22-7.36-.2-.39,.19-.8,.2-1.02,.55-.57,.89-.2,5.27-.2,6.75v17.73c0,2.22-.43,5.69,.55,7.02,1.91,.49,7.05,.65,8.39-.34,.53-2.14,.2-5.35,.2-7.84v-15.48c0-2.44,.55-6.67-.55-8.18Zm69.48,0c-1.99-.5-5.02-.22-7.36-.2-.39,.19-.8,.2-1.02,.55-.57,.89-.2,5.27-.2,6.75v17.73c0,2.22-.43,5.69,.55,7.02,1.91,.49,7.05,.65,8.39-.34,.53-2.14,.2-5.35,.2-7.84v-15.48c0-2.44,.55-6.67-.55-8.18Z"/><path class="cls-3" d="M106.99,47.85c-.06-.59-.25-1.18-.53-1.74-.52-.16-.99-.2-1.4-.04-2.04,.83-4.23,1.09-6.32,1.7-1.16,.34-2.17,.56-2.99,.16-.12-.06-.24-.13-.35-.22-.08-.06-.15-.13-.23-.2-.28-.29-.53-.69-.75-1.23,.36-.35,.34-.79,.15-1.27-.05-.13-.11-.26-.19-.4-.66-1.26-1.71-2.12-2.75-3.05-.81-.72-2.15-.93-2.36-2.27-.09,.05-.17,.06-.23,.06-.19-.01-.3-.19-.4-.4-.45-.36-.66-.85-.67-1.41-.01-.39-.07-.77-.17-1.13-.22-.88-.62-1.71-.9-2.57-.43-.1-.86-.19-1.19-.42-.26-.19-.45-.47-.51-.93-.56-.81-.36-1.8-.56-2.69-.09-.38-.18-.75-.31-1.1-.26-.74-.65-1.4-1.27-1.92-.03-.02-.06-.05-.08-.07-.64-.58-.93-1.32-1.05-2.08-.04-.3-.11-.59-.21-.86-.15-.45-.36-.87-.62-1.24-.04-.06-.08-.11-.12-.17-1.66-2.24-2.54-4.91-4.16-7.17-.6-.84-.53-2-1.01-2.95-.12-.23-.25-.44-.39-.62h0c-.7-.89-1.7-1.18-2.72-.46-1.52,1.07-2.97,.72-4.44,.31-1.85-.52-3.67-1.17-5.54-1.62-.66-.16-1.02-.7-1.4-1.15-.86-1.04-1.77-.36-2.59-.08-.74,.25-1.52,.62-1.53,1.6,0,.05,0,.09,0,.14,.02,.34,.02,.68,0,1.01-.03,.52-.11,.85-.28,1.01-.24,.23-.67,.15-1.45-.16-.99-.28-1.99-.55-2.98-.83-.75-.21-1.35-.51-1.77-1.31-.47-.88-1.32-1.38-2.39-1.61-1.96-.43-3.98-.77-5.77-2.25,.35-.27,.65-.53,.97-.76,.62-.44,.72-1.2,.44-1.65-.54-.87-.28-1.75-.3-2.56-.6-.39-1.22-.5-1.64-.98-.25-.28-.68-.35-.91-.12-.22,.22-.46,.39-.69,.51-.87,.46-1.82,.31-2.8,.11-.06-.01-.12-.03-.19-.04-.35-.07-.71-.04-1.06,.09-.13,.05-.25,.11-.38,.19-.37,.22-.76,.3-1.35,.16-.39-.1-.78-.16-1.18-.18-.65-.04-1.31,0-1.95,.12-1.04,.18-2.06,.53-3.02,.9-1.11,.42-2.43,.66-3.38,1.54-.38,.35-.86,.17-1.3,.2-.5,.03-1.1-.14-1.5,.07-.48,.26-.89,.3-1.28,.21-.4-.09-.77-.31-1.17-.56-1.08-.71-1.4-.56-1.91,.64-.05,.11-.09,.21-.14,.32-.72,1.53-1.75,2.73-3.57,3.08-.37,.07-.7,.27-1.08,.37-.41,.11-.99,.59-.86,.9,.39,.96-.28,1.8-.08,2.71,.5,2.21-.9,3.78-2.45,4.53-1.69,.81-2.75,1.98-3.85,3.31-.68,.83-1.24,1.67-1.47,2.71-.04,.21-.03,.52-.17,.62-1.62,1.25-1.88,3.34-3.07,4.87-.58,.74-.86,1.66-.02,2.58,.58,.64,.79,1.49,.43,2.33-.44,1.05,.97,1.4,.79,2.31-.04,.21-.18,.4-.25,.6-.15,.47-.31,.94-.4,1.42-.23,1.13-.35,2.3-1.41,3.05-.45,.32-.46,.98-.22,1.21,.86,.86,.6,1.88,.59,2.85,0,.98,.29,1.75,1.24,2.08,.47,.16,.89,.45,1.01,.82,.68,2,2.85,3.09,3.17,5.29,.05,.37,.37,.55,.6,.78,1.36,1.34,2.35,3.09,4.22,3.91,.29,.13,.51,.44,.72,.7,.52,.65,1.02,1.11,1.53,1.4,.94,.51,1.95,.44,3.33-.13,.19-.08,.39-.16,.58-.24,1.47-.59,3.01-1.09,4.53-.47,.22,.09,.43,.16,.64,.21,1.4,.37,2.59,0,3.9-.62,1.01-.48,2.04-.91,3.11-1.19,.93-.24,1.89-.37,2.91-.32,1.43,.08,2.39,.63,3.05,1.88,.75,1.41,.92,1.65,2.04,1.43,.11-.02,.22-.05,.34-.07,.05-.01,.11-.02,.16-.04h.03c.09-.03,.18-.05,.28-.07,2.28-.53,4.42,1.49,3.8,3.73-.32,1.16-.59,2.35-.83,3.51-.36,1.73-.25,3.45,.87,5.08,1.56,2.27,3.55,4.36,3.79,7.33,.01,.15,.2,.27,.26,.42,.51,1.34,1.67,2.58,.75,4.19-.05,.08,.16,.28,.17,.44,.1,1.12,.69,2.06,1.09,2.87-.17,1.2-1.35,1.55-1.61,2.46-.91,3.11-2.02,6.19-1.74,9.53,.06,.7,.23,1.31,.72,1.8,.57,.57,.8,1.26,1.07,2,.52,1.43,.83,2.97,1.91,4.16,.2,.23,.37,.6,.35,.9-.11,2.3,.47,4.51,.68,6.77,.03,.27,.06,.54,.1,.8,.19,1.05,.57,1.99,1.42,2.75,.43,.39,.83,.89,.82,1.4-.02,1.67,.94,2.89,1.74,4.18,.31,.5,.38,.81,.06,1.33-.04,.07-.08,.15-.12,.23-.06,.12-.1,.24-.13,.37-.34,1.23,.27,2.74,1.4,3.29,.65,.32,1.28,.42,1.96,.32,.06-.01,.12-.02,.19-.03,.18-.04,.36-.09,.55-.15,1.5-.52,3.08-.92,4.71-.75,.86,.09,1.68-.09,2.5-.26,.13-.03,.25-.05,.38-.07,.25-.05,.49-.09,.74-.12,.17-.02,.34-.06,.52-.11,.03,0,.06-.02,.09-.03,.38-.13,.75-.32,1.12-.53,.17-.1,.33-.19,.5-.29,1.56-.93,2.39-2.55,3.81-3.62,1.78-1.34,2.52-3.58,4.01-5.23,.62-.69,.97-1.65,.99-2.57,.02-1.41,.5-2.44,1.44-3.09,.39-.27,.85-.48,1.39-.63,.92-.25,1.41-.88,1.53-1.61,.02-.1,.03-.2,.03-.3,.05-1.82,.38-3.71-.42-5.45-.34-.73-.19-1.07,.47-1.47,.21-.13,.42-.27,.63-.42,.75-.56,1.4-1.26,1.9-2.01,.62-.95,1.47-1.5,2.37-1.92,1.31-.61,2.41-1.3,2.89-2.74l.03-.08c.1-.34,.51-.58,.77-.88,.18-.21,.47-.42,.49-.65,.19-1.86,1.31-5.24,.32-6.92-.02-.03-.04-.07-.06-.1h0c-.66-1.05-1.65-2.12-3.09-3.23-1.72-1.32-9.23-2.75-13.69,.05-.51,.32-.77,.91-.67,1.5,1.47,8.6-2.66,11.28-6.03,12.95-3.61,1.79-8.27,4.46-10.16,10.18-.07,.21-.26,.36-.48,.36-.22,0-.42-.12-.51-.33-3.44-8.53-2.05-16.59,.21-20.23,4.33-6.95,9.89-8.04,13.04-7.18,.1,.03,.17,.11,.19,.21,.02,.1-.02,.2-.11,.27-3.29,2.46-5.61,5.61-7.21,8.39-.14,.24-.39,.4-.66,.42-.09,0-.19,.02-.3,.03-1.6,.1-2.82,1.48-2.72,3.08,.1,1.6,1.48,2.82,3.07,2.72,1.6-.1,2.82-1.48,2.72-3.07-.04-.69-.29-1.23-.69-1.65-.46-.47-.51-1.22-.12-1.75,5.06-6.75,10.43-9.68,16.32-10.35,.41-.04,.77-.31,.93-.7,.16-.38,.1-.82-.16-1.15-4.71-5.9-6.77-11.56-8.19-15.73-.69-2.01-3.69-8.62-5.55-11.03-1.38-1.78-3.33-6.35-10.26-11.79-1-.78-2.09-1.58-3.31-2.32-.36-.21-.55-.63-.46-1.05,.08-.39,.11-.8,.09-1.22-.16-2.59-2.39-4.56-4.97-4.4-2.59,.16-4.56,2.39-4.4,4.98,.16,2.59,2.39,4.56,4.98,4.4,1.31-.08,2.45-.65,3.22-1.45,.34-.35,.89-.4,1.29-.11,7.19,5.21,9.44,8.95,13.41,16.63,.06,.13,.03,.28-.07,.37-2.63,2.01-14.58,5.06-21.24-7.37-5-9.32-9.71-11.37-16.62-10.69-.3,.03-.58-.12-.73-.38-.15-.26-.13-.58,.05-.82,9.98-13.64,24.91-12.51,33.71-7.2,11.52,6.97,11.92,17.58,10.75,21.09-.04,.1-.13,.17-.24,.19-.11,.02-.22-.03-.28-.12-1.47-1.83-4.7-4.72-7.57-7-.1-.08-.24-.06-.32,.03-.08,.09-.08,.24,.01,.32,4.64,4.92,9.79,12.34,11.29,15.86,1.84,4.34,3.24,6.39,6.69,10.11,.16,.18,.42,.23,.63,.13,.22-.1,.34-.33,.31-.57-.62-4.29,.77-7.13,.95-10.01,.03-.38,.04-.71,.05-1.01,.02-.5-.24-.97-.67-1.22-1.15-.66-1.96-1.86-2.05-3.28-.14-2.24,1.57-4.16,3.8-4.3,2.24-.14,4.16,1.57,4.3,3.8,.09,1.42-.56,2.71-1.63,3.5-.4,.3-.82,.54-1.4,.68-.61,.14-1.04,.69-1.04,1.32-.03,1.5-.33,3.23-.56,5.47-.35,3.38,.14,6.46,1.49,8.41,.69,1,1.78,2.07,3.5,2.99,.15-.09,.33-.28,.48-.81-.08-.05-.33-.06-.07-.1,.1-.05-.13-.07-.02-.09,.13,.04,.09,.21,.22,0-.06,.01-.16-.09-.06-.12,0,.08,.04,.09,.08,.06,.04-.17,.09-.34,.14-.51v-.03c.05-.13,.11-.25,.16-.37h0s.03-.07,.05-.11c.1-.2,.21-.39,.33-.57,.04-.05,.07-.1,.11-.16,.17-.23,.35-.45,.53-.66,.19-.23,.39-.45,.58-.68l.04-.05,.07-.08v-.02c.39-.43,.75-.86,1.09-1.32,1.12-1.52,2.26-3.11,3.81-4.2,1.41-1,2.67-2.06,3.75-3.42,.79-1,1.56-1.97,2.17-3.1,1.44-2.71,2.47-5.6,3.78-8.37,.33-.7,.44-1.47,.36-2.23Zm-45.65,47.11c-.9,.05-1.67-.63-1.72-1.53-.05-.9,.63-1.67,1.53-1.72,.9-.06,1.67,.63,1.72,1.52,.06,.9-.63,1.67-1.52,1.72Zm-13.14-57.89c-1.29,.08-2.41-.91-2.49-2.2-.08-1.29,.91-2.41,2.2-2.49,1.29-.08,2.41,.91,2.49,2.2,.08,1.29-.91,2.41-2.2,2.49Zm41.06,2.2s0,.02,0,.03c.01,0,.02-.01,.03-.02h-.04Zm-1.83,13.23c-.08-1.37-1.26-2.42-2.64-2.33-1.37,.09-2.42,1.27-2.33,2.64,.09,1.37,1.27,2.41,2.64,2.33,1.37-.09,2.42-1.27,2.33-2.64Zm16.08,36.05c1.07,.6,1.2,1.63,1.39,2.59,.39,1.96,.8,3.89-.61,5.71-.47,.6-.74,1.41-.84,2.28-.14,1.17-.49,2.38-1.03,3.42-1.33,2.54-1.89,5.34-2.94,7.97-.73,1.84-2.93,2.95-4.7,2.28-.57-.22-.89-.66-1.04-1.17-.39-1.3-.62-2.65-1-3.96-.23-.81-.15-1.69,.64-2.45,.6-.58,.96-1.47,1.24-2.29,.22-.66,.23-1.4-.21-2.09-1.12-1.78,.46-4.91,2.25-5.47,1.83-.57,3.18-1.66,4.21-3.24,.27-.42,.68-.75,1.04-1.1,.32-.32,.69-.61,.59-1.13-.18-.91,.53-1.05,1.03-1.35Z"/></g></g></svg>